<svg width="382" height="51" viewBox="0 0 382 51" fill="none" xmlns="http://www.w3.org/2000/svg">
<path d="M0 33V0.549998H4.95V33H0ZM6.6 33V0.549998H11.55V33H6.6ZM13.2 33V0.549998H14.85V33H13.2ZM19.8 33V0.549998H21.45V33H19.8ZM23.1 33V0.549998H24.75V33H23.1ZM13.915 50.765C12.9617 50.765 12.1183 50.5267 11.385 50.05C10.615 49.5733 10.01 48.8583 9.57 47.905C9.13 46.915 8.91 45.6867 8.91 44.22C8.91 42.68 9.14833 41.415 9.625 40.425C10.1017 39.4717 10.7067 38.775 11.44 38.335C12.1733 37.9317 12.9617 37.73 13.805 37.73C14.7217 37.73 15.51 37.95 16.17 38.39C16.83 38.83 17.325 39.435 17.655 40.205L16.445 40.81L16.28 40.865L16.225 40.755V40.59C16.225 40.4433 16.1333 40.2417 15.95 39.985C15.6567 39.5817 15.3267 39.2883 14.96 39.105C14.5933 38.9217 14.2083 38.83 13.805 38.83C12.705 38.83 11.8433 39.3067 11.22 40.26C10.6333 41.1767 10.34 42.4783 10.34 44.165C10.34 45.1917 10.4867 46.1267 10.78 46.97C11.11 47.7767 11.5317 48.4 12.045 48.84C12.595 49.28 13.2 49.5 13.86 49.5C14.3733 49.5 14.85 49.3717 15.29 49.115C15.7667 48.8217 16.1517 48.4367 16.445 47.96L17.49 48.675C17.05 49.3717 16.555 49.885 16.005 50.215C15.4183 50.5817 14.7217 50.765 13.915 50.765ZM32.4758 33V0.549998H37.4258V33H32.4758ZM39.0758 33V0.549998H40.7258V33H39.0758ZM42.3758 33V0.549998H44.0258V33H42.3758ZM48.9758 33V0.549998H50.6258V33H48.9758ZM52.2758 33V0.549998H57.2258V33H52.2758ZM47.7108 46.805H43.5858L42.3208 50.545H40.8908L45.5658 37.565H45.7308L50.4608 50.545H48.9758L47.7108 46.805ZM47.3258 45.705L45.6758 40.865L43.9708 45.705H47.3258ZM64.9516 33V0.549998H69.9016V33H64.9516ZM71.5516 33V0.549998H73.2016V33H71.5516ZM74.8516 33V0.549998H76.5016V33H74.8516ZM78.1516 33V0.549998H83.1016V33H78.1516ZM88.0516 33V0.549998H89.7016V33H88.0516ZM74.1916 37.785H77.9316C79.3982 37.785 80.4616 38.115 81.1216 38.775C81.8182 39.3983 82.1666 40.2967 82.1666 41.47C82.1666 42.2033 81.9282 42.9 81.4516 43.56C80.9749 44.22 80.3516 44.66 79.5816 44.88L82.5516 50.545H80.9566L78.0966 44.935H75.6216V50.545H74.1916V37.785ZM78.0966 43.67C78.9766 43.67 79.6366 43.4683 80.0766 43.065C80.4799 42.6983 80.6816 42.1667 80.6816 41.47C80.6816 40.7733 80.4799 40.205 80.0766 39.765C79.6366 39.3617 78.9766 39.16 78.0966 39.16H75.6216V43.67H78.0966ZM97.4273 33V0.549998H99.0773V33H97.4273ZM100.727 33V0.549998H105.677V33H100.727ZM107.327 33V0.549998H108.977V33H107.327ZM113.927 33V0.549998H115.577V33H113.927ZM117.227 33V0.549998H122.177V33H117.227ZM106.502 37.785H110.132C111.526 37.785 112.571 38.06 113.267 38.61C114.001 39.16 114.367 39.93 114.367 40.92C114.367 41.5433 114.202 42.1117 113.872 42.625C113.506 43.1383 113.029 43.505 112.442 43.725C113.176 43.9817 113.762 44.4033 114.202 44.99C114.642 45.6133 114.862 46.2733 114.862 46.97C114.862 48.07 114.459 48.95 113.652 49.61C112.882 50.2333 111.691 50.545 110.077 50.545H106.502V37.785ZM109.912 43.065C111.929 43.065 112.937 42.3867 112.937 41.03C112.937 40.4433 112.699 39.9667 112.222 39.6C111.782 39.1967 111.086 38.995 110.132 38.995H107.877V43.065H109.912ZM110.352 49.28C112.332 49.28 113.322 48.4733 113.322 46.86C113.322 45.1367 112.204 44.275 109.967 44.275H107.877V49.28H110.352ZM129.903 33V0.549998H134.853V33H129.903ZM136.503 33V0.549998H138.153V33H136.503ZM139.803 33V0.549998H144.753V33H139.803ZM146.403 33V0.549998H148.053V33H146.403ZM153.003 33V0.549998H154.653V33H153.003ZM143.103 50.765C141.636 50.765 140.518 50.1967 139.748 49.06C138.941 47.9233 138.538 46.31 138.538 44.22C138.538 42.2033 138.941 40.6083 139.748 39.435C140.555 38.2983 141.673 37.73 143.103 37.73C144.533 37.73 145.651 38.2983 146.458 39.435C147.265 40.6083 147.668 42.2033 147.668 44.22C147.668 46.31 147.265 47.9233 146.458 49.06C145.688 50.1967 144.57 50.765 143.103 50.765ZM143.103 49.5C144.093 49.5 144.845 49.06 145.358 48.18C145.908 47.2633 146.183 45.9433 146.183 44.22C146.183 42.6067 145.908 41.3233 145.358 40.37C144.808 39.4533 144.056 38.995 143.103 38.995C142.15 38.995 141.398 39.4533 140.848 40.37C140.298 41.3233 140.023 42.6067 140.023 44.22C140.023 45.9433 140.28 47.2633 140.793 48.18C141.343 49.06 142.113 49.5 143.103 49.5ZM162.379 33V0.549998H164.029V33H162.379ZM165.679 33V0.549998H167.329V33H165.679ZM168.979 33V0.549998H173.929V33H168.979ZM175.579 33V0.549998H177.229V33H175.579ZM182.179 33V0.549998H187.129V33H182.179ZM171.509 37.785H172.884L178.219 47.245V37.785H179.814V37.95C179.704 38.0233 179.649 38.115 179.649 38.225C179.612 38.2983 179.594 38.4633 179.594 38.72V50.545H178.494L172.829 40.535V50.545H171.509V37.785ZM194.855 33V0.549998H196.505V33H194.855ZM201.455 33V0.549998H203.105V33H201.455ZM204.755 33V0.549998H206.405V33H204.755ZM208.055 33V0.549998H213.005V33H208.055ZM214.655 33V0.549998H219.605V33H214.655ZM204.37 43.45H211.74V44.825H204.37V43.45ZM227.33 33V0.549998H228.98V33H227.33ZM230.63 33V0.549998H232.28V33H230.63ZM233.93 33V0.549998H238.88V33H233.93ZM240.53 33V0.549998H245.48V33H240.53ZM250.43 33V0.549998H252.08V33H250.43ZM239.65 39.05H236.075V37.785H244.875V39.05H241.135V50.545H239.65V39.05ZM259.806 33V0.549998H264.756V33H259.806ZM266.406 33V0.549998H268.056V33H266.406ZM269.706 33V0.549998H271.356V33H269.706ZM273.006 33V0.549998H277.956V33H273.006ZM282.906 33V0.549998H284.556V33H282.906ZM269.046 37.785H272.786C274.253 37.785 275.316 38.115 275.976 38.775C276.673 39.3983 277.021 40.2967 277.021 41.47C277.021 42.2033 276.783 42.9 276.306 43.56C275.83 44.22 275.206 44.66 274.436 44.88L277.406 50.545H275.811L272.951 44.935H270.476V50.545H269.046V37.785ZM272.951 43.67C273.831 43.67 274.491 43.4683 274.931 43.065C275.335 42.6983 275.536 42.1667 275.536 41.47C275.536 40.7733 275.335 40.205 274.931 39.765C274.491 39.3617 273.831 39.16 272.951 39.16H270.476V43.67H272.951ZM292.282 33V0.549998H297.232V33H292.282ZM298.882 33V0.549998H300.532V33H298.882ZM302.182 33V0.549998H303.832V33H302.182ZM308.782 33V0.549998H310.432V33H308.782ZM312.082 33V0.549998H317.032V33H312.082ZM307.517 46.805H303.392L302.127 50.545H300.697L305.372 37.565H305.537L310.267 50.545H308.782L307.517 46.805ZM307.132 45.705L305.482 40.865L303.777 45.705H307.132ZM324.758 33V0.549998H326.408V33H324.758ZM328.058 33V0.549998H329.708V33H328.058ZM331.358 33V0.549998H336.308V33H331.358ZM341.258 33V0.549998H342.908V33H341.258ZM344.558 33V0.549998H349.508V33H344.558ZM333.943 37.785H336.913C337.976 37.785 338.801 37.9317 339.388 38.225C340.011 38.5183 340.543 38.9583 340.983 39.545C341.826 40.645 342.248 42.2033 342.248 44.22C342.174 46.31 341.698 47.8867 340.818 48.95C339.938 50.05 338.563 50.5817 336.693 50.545H333.943V37.785ZM336.583 49.445C339.406 49.445 340.818 47.74 340.818 44.33C340.818 42.6067 340.506 41.2867 339.883 40.37C339.223 39.4533 338.196 38.995 336.803 38.995H335.318V49.445H336.583ZM357.234 33V0.549998H362.184V33H357.234ZM363.834 33V0.549998H365.484V33H363.834ZM367.134 33V0.549998H372.084V33H367.134ZM377.034 33V0.549998H378.684V33H377.034ZM380.334 33V0.549998H381.984V33H380.334ZM366.529 37.785H374.339V39.05H367.849V43.23H373.239V44.55H367.849V49.28H374.284V50.545H366.529V37.785Z" fill="white"/>
</svg>
